<svg width="24" height="25" viewBox="0 0 24 25" fill="none" xmlns="http://www.w3.org/2000/svg">
<ellipse cx="5.69531" cy="7.35913" rx="5.69531" ry="7.35913" transform="matrix(-1 0 0 1 17.0254 6.06836)" fill="#FFF6E5"/>
<path d="M11.7177 0.845703C18.1791 0.845703 23.4355 6.10214 23.4355 12.5636C23.4355 19.0251 18.1791 24.2815 11.7177 24.2815C5.25619 24.2815 -0.000244141 19.0251 -0.000244141 12.5636C-0.000244141 6.10214 5.25619 0.845703 11.7177 0.845703ZM8.09778 13.254L12.9803 18.1364C13.0708 18.2272 13.1784 18.2992 13.2969 18.3483C13.4154 18.3974 13.5424 18.4227 13.6706 18.4225C13.7989 18.4227 13.9259 18.3974 14.0444 18.3483C14.1629 18.2992 14.2705 18.2272 14.361 18.1364C14.7428 17.7546 14.7428 17.1375 14.361 16.7557L10.1689 12.5636L14.361 8.37152C14.7428 7.98973 14.7428 7.37257 14.361 6.99078C13.9792 6.60899 13.362 6.60899 12.9803 6.99078L8.09778 11.8733C7.71599 12.255 7.71599 12.8722 8.09778 13.254Z" fill="black"/>
</svg>
