<svg width="24" height="25" viewBox="0 0 24 25" fill="none" xmlns="http://www.w3.org/2000/svg">
<ellipse cx="12.6699" cy="13.4275" rx="5.69531" ry="7.35913" fill="#FFF6E5"/>
<path d="M12.2823 0.845703C5.82089 0.845703 0.564453 6.10214 0.564453 12.5636C0.564453 19.0251 5.82089 24.2815 12.2823 24.2815C18.7438 24.2815 24.0002 19.0251 24.0002 12.5636C24.0002 6.10214 18.7438 0.845703 12.2823 0.845703ZM15.9022 13.254L11.0197 18.1364C10.9292 18.2272 10.8216 18.2992 10.7031 18.3483C10.5846 18.3974 10.4576 18.4227 10.3294 18.4225C10.2011 18.4227 10.0741 18.3974 9.95562 18.3483C9.83714 18.2992 9.72953 18.2272 9.63896 18.1364C9.25716 17.7546 9.25716 17.1375 9.63896 16.7557L13.8311 12.5636L9.639 8.37152C9.25721 7.98973 9.25721 7.37257 9.639 6.99078C10.0208 6.60899 10.638 6.60899 11.0197 6.99078L15.9022 11.8733C16.284 12.255 16.284 12.8722 15.9022 13.254Z" fill="black"/>
</svg>
